<svg xmlns="http://www.w3.org/2000/svg" width="600" height="600"><g fill="steelblue"><rect x="31" y="188" height="370" width="70"/><rect x="109" y="20" height="538" width="70"/><rect x="187" y="255" height="303" width="70"/><rect x="265" y="345" height="213" width="70"/><rect x="343" y="491" height="67" width="70"/><rect x="421" y="536" height="22" width="70"/><rect x="499" y="558" height="0" width="70"/></g><g transform="translate(0,558)" fill="none" font-size="10" font-family="sans-serif" text-anchor="middle"><path class="domain" stroke="currentColor" d="M20.5,6V0.5H580.5V6"/><g class="tick" opacity="1" transform="translate(66.5,0)"><line stroke="currentColor" y2="6"/><text fill="currentColor" y="9" dy="0.71em" style="font-size: 0.75rem;">0-10</text></g><g class="tick" opacity="1" transform="translate(144.5,0)"><line stroke="currentColor" y2="6"/><text fill="currentColor" y="9" dy="0.71em" style="font-size: 0.75rem;">11-30</text></g><g class="tick" opacity="1" transform="translate(222.5,0)"><line stroke="currentColor" y2="6"/><text fill="currentColor" y="9" dy="0.71em" style="font-size: 0.75rem;">31-50</text></g><g class="tick" opacity="1" transform="translate(300.5,0)"><line stroke="currentColor" y2="6"/><text fill="currentColor" y="9" dy="0.71em" style="font-size: 0.75rem;">51-100</text></g><g class="tick" opacity="1" transform="translate(378.5,0)"><line stroke="currentColor" y2="6"/><text fill="currentColor" y="9" dy="0.71em" style="font-size: 0.75rem;">101-200</text></g><g class="tick" opacity="1" transform="translate(456.5,0)"><line stroke="currentColor" y2="6"/><text fill="currentColor" y="9" dy="0.71em" style="font-size: 0.75rem;">201-500</text></g><g class="tick" opacity="1" transform="translate(534.5,0)"><line stroke="currentColor" y2="6"/><text fill="currentColor" y="9" dy="0.71em" style="font-size: 0.75rem;">500+</text></g></g><g font-family="sans-serif" font-size="10" text-anchor="middle" stroke-linejoin="round" stroke-linecap="round"><text dy="0.35em" x="66" y="178" fill="none" stroke="#fff" stroke-width="6" style="font-size: 0.75rem;">33</text><text dy="0.35em" x="66" y="178" style="font-size: 0.75rem;">33</text><text dy="0.35em" x="144" y="10" fill="none" stroke="#fff" stroke-width="6" style="font-size: 0.75rem;">48</text><text dy="0.35em" x="144" y="10" style="font-size: 0.75rem;">48</text><text dy="0.35em" x="222" y="245" fill="none" stroke="#fff" stroke-width="6" style="font-size: 0.75rem;">27</text><text dy="0.35em" x="222" y="245" style="font-size: 0.75rem;">27</text><text dy="0.35em" x="300" y="335" fill="none" stroke="#fff" stroke-width="6" style="font-size: 0.75rem;">19</text><text dy="0.35em" x="300" y="335" style="font-size: 0.75rem;">19</text><text dy="0.35em" x="378" y="481" fill="none" stroke="#fff" stroke-width="6" style="font-size: 0.75rem;">6</text><text dy="0.35em" x="378" y="481" style="font-size: 0.75rem;">6</text><text dy="0.35em" x="456" y="526" fill="none" stroke="#fff" stroke-width="6" style="font-size: 0.75rem;">2</text><text dy="0.35em" x="456" y="526" style="font-size: 0.75rem;">2</text><text dy="0.35em" x="534" y="548" fill="none" stroke="#fff" stroke-width="6" style="font-size: 0.75rem;">0<tspan font-weight="bold"> Commits</tspan></text><text dy="0.35em" x="534" y="548" style="font-size: 0.75rem;">0<tspan font-weight="bold"> Commits</tspan></text></g></svg>