<svg xmlns="http://www.w3.org/2000/svg" width="1200" height="600"><g transform="translate(0,558)" fill="none" font-size="10" font-family="sans-serif" text-anchor="middle"><path class="domain" stroke="currentColor" d="M30.5,6V0.5H1180.5V6"/><g class="tick" opacity="1" transform="translate(96.63995132185214,0)"><line stroke="currentColor" y2="6"/><text fill="currentColor" y="9" dy="0.71em" style="font-size: 0.75rem;">Wed 31</text></g><g class="tick" opacity="1" transform="translate(178.45085746656258,0)"><line stroke="currentColor" y2="6"/><text fill="currentColor" y="9" dy="0.71em" style="font-size: 0.75rem;">June</text></g><g class="tick" opacity="1" transform="translate(260.26176361127307,0)"><line stroke="currentColor" y2="6"/><text fill="currentColor" y="9" dy="0.71em" style="font-size: 0.75rem;">Fri 02</text></g><g class="tick" opacity="1" transform="translate(342.07266975598355,0)"><line stroke="currentColor" y2="6"/><text fill="currentColor" y="9" dy="0.71em" style="font-size: 0.75rem;">Sat 03</text></g><g class="tick" opacity="1" transform="translate(423.883575900694,0)"><line stroke="currentColor" y2="6"/><text fill="currentColor" y="9" dy="0.71em" style="font-size: 0.75rem;">Jun 04</text></g><g class="tick" opacity="1" transform="translate(505.69448204540436,0)"><line stroke="currentColor" y2="6"/><text fill="currentColor" y="9" dy="0.71em" style="font-size: 0.75rem;">Mon 05</text></g><g class="tick" opacity="1" transform="translate(587.5053881901149,0)"><line stroke="currentColor" y2="6"/><text fill="currentColor" y="9" dy="0.71em" style="font-size: 0.75rem;">Tue 06</text></g><g class="tick" opacity="1" transform="translate(669.3162943348253,0)"><line stroke="currentColor" y2="6"/><text fill="currentColor" y="9" dy="0.71em" style="font-size: 0.75rem;">Wed 07</text></g><g class="tick" opacity="1" transform="translate(751.1272004795358,0)"><line stroke="currentColor" y2="6"/><text fill="currentColor" y="9" dy="0.71em" style="font-size: 0.75rem;">Thu 08</text></g><g class="tick" opacity="1" transform="translate(832.9381066242462,0)"><line stroke="currentColor" y2="6"/><text fill="currentColor" y="9" dy="0.71em" style="font-size: 0.75rem;">Fri 09</text></g><g class="tick" opacity="1" transform="translate(914.7490127689567,0)"><line stroke="currentColor" y2="6"/><text fill="currentColor" y="9" dy="0.71em" style="font-size: 0.75rem;">Sat 10</text></g><g class="tick" opacity="1" transform="translate(996.5599189136672,0)"><line stroke="currentColor" y2="6"/><text fill="currentColor" y="9" dy="0.71em" style="font-size: 0.75rem;">Jun 11</text></g><g class="tick" opacity="1" transform="translate(1078.3708250583777,0)"><line stroke="currentColor" y2="6"/><text fill="currentColor" y="9" dy="0.71em" style="font-size: 0.75rem;">Mon 12</text></g><g class="tick" opacity="1" transform="translate(1160.181731203088,0)"><line stroke="currentColor" y2="6"/><text fill="currentColor" y="9" dy="0.71em" style="font-size: 0.75rem;">Tue 13</text></g></g><g transform="translate(30,0)" fill="none" font-size="10" font-family="sans-serif" text-anchor="end"><g class="tick" opacity="1" transform="translate(0,558.5)"><line stroke="currentColor" x2="-6"/><line stroke="currentColor" x2="1150" stroke-opacity="0.1"/><text fill="currentColor" x="-9" dy="0.32em" style="font-size: 0.75rem;">0</text></g><g class="tick" opacity="1" transform="translate(0,503.7)"><line stroke="currentColor" x2="-6"/><line stroke="currentColor" x2="1150" stroke-opacity="0.1"/><text fill="currentColor" x="-9" dy="0.32em" style="font-size: 0.75rem;">1</text></g><g class="tick" opacity="1" transform="translate(0,448.90000000000003)"><line stroke="currentColor" x2="-6"/><line stroke="currentColor" x2="1150" stroke-opacity="0.1"/><text fill="currentColor" x="-9" dy="0.32em" style="font-size: 0.75rem;">2</text></g><g class="tick" opacity="1" transform="translate(0,394.09999999999997)"><line stroke="currentColor" x2="-6"/><line stroke="currentColor" x2="1150" stroke-opacity="0.1"/><text fill="currentColor" x="-9" dy="0.32em" style="font-size: 0.75rem;">3</text></g><g class="tick" opacity="1" transform="translate(0,339.3)"><line stroke="currentColor" x2="-6"/><line stroke="currentColor" x2="1150" stroke-opacity="0.1"/><text fill="currentColor" x="-9" dy="0.32em" style="font-size: 0.75rem;">4</text></g><g class="tick" opacity="1" transform="translate(0,284.5)"><line stroke="currentColor" x2="-6"/><line stroke="currentColor" x2="1150" stroke-opacity="0.1"/><text fill="currentColor" x="-9" dy="0.32em" style="font-size: 0.75rem;">5</text></g><g class="tick" opacity="1" transform="translate(0,229.70000000000002)"><line stroke="currentColor" x2="-6"/><line stroke="currentColor" x2="1150" stroke-opacity="0.1"/><text fill="currentColor" x="-9" dy="0.32em" style="font-size: 0.75rem;">6</text></g><g class="tick" opacity="1" transform="translate(0,174.90000000000003)"><line stroke="currentColor" x2="-6"/><line stroke="currentColor" x2="1150" stroke-opacity="0.1"/><text fill="currentColor" x="-9" dy="0.32em" style="font-size: 0.75rem;">7</text></g><g class="tick" opacity="1" transform="translate(0,120.09999999999998)"><line stroke="currentColor" x2="-6"/><line stroke="currentColor" x2="1150" stroke-opacity="0.1"/><text fill="currentColor" x="-9" dy="0.32em" style="font-size: 0.75rem;">8</text></g><g class="tick" opacity="1" transform="translate(0,65.29999999999998)"><line stroke="currentColor" x2="-6"/><line stroke="currentColor" x2="1150" stroke-opacity="0.1"/><text fill="currentColor" x="-9" dy="0.32em" style="font-size: 0.75rem;">9</text></g><g class="tick" opacity="1" transform="translate(0,10.5)"><line stroke="currentColor" x2="-6"/><line stroke="currentColor" x2="1150" stroke-opacity="0.1"/><text fill="currentColor" x="-9" dy="0.32em" style="font-size: 0.75rem;">10</text></g></g><g><path fill="rgb(137, 224, 81, 0.8)" d="M30,503.2L111.531,503.2L113.3,503.2L116.019,503.2L518.881,448.4L520.546,448.4L522.529,448.4L523.439,448.4L1170.94,448.4L1180,448.4L1180,558L1170.94,558L523.439,558L522.529,558L520.546,558L518.881,558L116.019,558L113.3,558L111.531,558L30,558Z"><title>Bash</title></path><path fill="rgb(203, 23, 30, 0.8)" d="M30,503.2L111.531,448.4L113.3,393.6L116.019,338.8L518.881,284L520.546,229.2L522.529,174.4L523.439,119.6L1170.94,64.8L1180,10L1180,448.4L1170.94,448.4L523.439,448.4L522.529,448.4L520.546,448.4L518.881,448.4L116.019,503.2L113.3,503.2L111.531,503.2L30,503.2Z"><title>YAML</title></path></g></svg>