<svg xmlns="http://www.w3.org/2000/svg" width="1200" height="600"><g transform="translate(0,558)" fill="none" font-size="10" font-family="sans-serif" text-anchor="middle"><path class="domain" stroke="currentColor" d="M40.53125,6V0.5H1180.5V6"/><g class="tick" opacity="1" transform="translate(119.92643612736461,0)"><line stroke="currentColor" y2="6"/><text fill="currentColor" y="9" dy="0.71em" style="font-size: 0.75rem;">Mar 26</text></g><g class="tick" opacity="1" transform="translate(207.4507624361867,0)"><line stroke="currentColor" y2="6"/><text fill="currentColor" y="9" dy="0.71em" style="font-size: 0.75rem;">Apr 02</text></g><g class="tick" opacity="1" transform="translate(294.97508874500875,0)"><line stroke="currentColor" y2="6"/><text fill="currentColor" y="9" dy="0.71em" style="font-size: 0.75rem;">Apr 09</text></g><g class="tick" opacity="1" transform="translate(382.4994150538308,0)"><line stroke="currentColor" y2="6"/><text fill="currentColor" y="9" dy="0.71em" style="font-size: 0.75rem;">Apr 16</text></g><g class="tick" opacity="1" transform="translate(470.02374136265286,0)"><line stroke="currentColor" y2="6"/><text fill="currentColor" y="9" dy="0.71em" style="font-size: 0.75rem;">Apr 23</text></g><g class="tick" opacity="1" transform="translate(557.548067671475,0)"><line stroke="currentColor" y2="6"/><text fill="currentColor" y="9" dy="0.71em" style="font-size: 0.75rem;">Apr 30</text></g><g class="tick" opacity="1" transform="translate(645.072393980297,0)"><line stroke="currentColor" y2="6"/><text fill="currentColor" y="9" dy="0.71em" style="font-size: 0.75rem;">May 07</text></g><g class="tick" opacity="1" transform="translate(732.596720289119,0)"><line stroke="currentColor" y2="6"/><text fill="currentColor" y="9" dy="0.71em" style="font-size: 0.75rem;">May 14</text></g><g class="tick" opacity="1" transform="translate(820.1210465979411,0)"><line stroke="currentColor" y2="6"/><text fill="currentColor" y="9" dy="0.71em" style="font-size: 0.75rem;">May 21</text></g><g class="tick" opacity="1" transform="translate(907.6453729067632,0)"><line stroke="currentColor" y2="6"/><text fill="currentColor" y="9" dy="0.71em" style="font-size: 0.75rem;">May 28</text></g><g class="tick" opacity="1" transform="translate(995.1696992155852,0)"><line stroke="currentColor" y2="6"/><text fill="currentColor" y="9" dy="0.71em" style="font-size: 0.75rem;">Jun 04</text></g><g class="tick" opacity="1" transform="translate(1082.6940255244074,0)"><line stroke="currentColor" y2="6"/><text fill="currentColor" y="9" dy="0.71em" style="font-size: 0.75rem;">Jun 11</text></g><g class="tick" opacity="1" transform="translate(1170.2183518332292,0)"><line stroke="currentColor" y2="6"/><text fill="currentColor" y="9" dy="0.71em" style="font-size: 0.75rem;">Jun 18</text></g></g><g transform="translate(40.03125,0)" fill="none" font-size="10" font-family="sans-serif" text-anchor="end"><g class="tick" opacity="1" transform="translate(0,558.5)"><line stroke="currentColor" x2="-6"/><line stroke="currentColor" x2="1139.96875" stroke-opacity="0.1"/><text fill="currentColor" x="-9" dy="0.32em" style="font-size: 0.75rem;">0</text></g><g class="tick" opacity="1" transform="translate(0,513.6666666666666)"><line stroke="currentColor" x2="-6"/><line stroke="currentColor" x2="1139.96875" stroke-opacity="0.1"/><text fill="currentColor" x="-9" dy="0.32em" style="font-size: 0.75rem;">10</text></g><g class="tick" opacity="1" transform="translate(0,468.8333333333333)"><line stroke="currentColor" x2="-6"/><line stroke="currentColor" x2="1139.96875" stroke-opacity="0.1"/><text fill="currentColor" x="-9" dy="0.32em" style="font-size: 0.75rem;">20</text></g><g class="tick" opacity="1" transform="translate(0,424)"><line stroke="currentColor" x2="-6"/><line stroke="currentColor" x2="1139.96875" stroke-opacity="0.1"/><text fill="currentColor" x="-9" dy="0.32em" style="font-size: 0.75rem;">30</text></g><g class="tick" opacity="1" transform="translate(0,379.16666666666674)"><line stroke="currentColor" x2="-6"/><line stroke="currentColor" x2="1139.96875" stroke-opacity="0.1"/><text fill="currentColor" x="-9" dy="0.32em" style="font-size: 0.75rem;">40</text></g><g class="tick" opacity="1" transform="translate(0,334.33333333333326)"><line stroke="currentColor" x2="-6"/><line stroke="currentColor" x2="1139.96875" stroke-opacity="0.1"/><text fill="currentColor" x="-9" dy="0.32em" style="font-size: 0.75rem;">50</text></g><g class="tick" opacity="1" transform="translate(0,289.5)"><line stroke="currentColor" x2="-6"/><line stroke="currentColor" x2="1139.96875" stroke-opacity="0.1"/><text fill="currentColor" x="-9" dy="0.32em" style="font-size: 0.75rem;">60</text></g><g class="tick" opacity="1" transform="translate(0,244.66666666666663)"><line stroke="currentColor" x2="-6"/><line stroke="currentColor" x2="1139.96875" stroke-opacity="0.1"/><text fill="currentColor" x="-9" dy="0.32em" style="font-size: 0.75rem;">70</text></g><g class="tick" opacity="1" transform="translate(0,199.83333333333337)"><line stroke="currentColor" x2="-6"/><line stroke="currentColor" x2="1139.96875" stroke-opacity="0.1"/><text fill="currentColor" x="-9" dy="0.32em" style="font-size: 0.75rem;">80</text></g><g class="tick" opacity="1" transform="translate(0,155)"><line stroke="currentColor" x2="-6"/><line stroke="currentColor" x2="1139.96875" stroke-opacity="0.1"/><text fill="currentColor" x="-9" dy="0.32em" style="font-size: 0.75rem;">90</text></g><g class="tick" opacity="1" transform="translate(0,110.16666666666666)"><line stroke="currentColor" x2="-6"/><line stroke="currentColor" x2="1139.96875" stroke-opacity="0.1"/><text fill="currentColor" x="-9" dy="0.32em" style="font-size: 0.75rem;">100</text></g><g class="tick" opacity="1" transform="translate(0,65.33333333333336)"><line stroke="currentColor" x2="-6"/><line stroke="currentColor" x2="1139.96875" stroke-opacity="0.1"/><text fill="currentColor" x="-9" dy="0.32em" style="font-size: 0.75rem;">110</text></g><g class="tick" opacity="1" transform="translate(0,20.5)"><line stroke="currentColor" x2="-6"/><line stroke="currentColor" x2="1139.96875" stroke-opacity="0.1"/><text fill="currentColor" x="-9" dy="0.32em" style="font-size: 0.75rem;">120</text></g></g><g><path fill="rgb(43, 116, 137, 0.8)" d="M40.031,553.517L55.476,549.033L66.696,544.55L77.675,544.55L91.86,540.067L106.663,535.583L117.952,531.1L142.237,531.1L156.342,531.1L179.528,531.1L201.384,526.617L203.957,522.133L204.058,517.65L226.458,513.167L226.556,508.683L227.48,504.2L227.521,499.717L238.632,495.233L239.742,495.233L254.223,495.233L263.604,490.75L276.348,486.267L279.746,481.783L279.776,481.783L288.841,481.783L303.063,477.3L314.941,472.817L342.968,468.333L354.104,463.85L367.441,459.367L377.974,454.883L389.428,450.4L404.146,445.917L418.063,441.433L429.364,436.95L441.923,432.467L455.965,427.983L464.045,423.5L464.638,419.017L464.804,414.533L464.915,410.05L477.195,405.567L492.413,401.083L503.658,396.6L516.464,392.117L528.651,387.633L542.576,383.15L564.046,378.667L579.675,374.183L592.335,369.7L603.738,365.217L617.198,360.733L628.627,356.25L640.771,351.767L652.992,347.283L666.951,342.8L681.81,338.317L691.318,333.833L704.678,329.35L717.064,324.867L727.339,320.383L743.11,315.9L754.283,311.417L779.555,306.933L791.528,302.45L805.572,297.967L814.661,293.483L814.952,289L814.961,284.517L814.99,280.033L827.151,275.55L827.264,271.067L841.597,266.583L841.652,262.1L841.873,257.617L856.922,253.133L865.911,248.65L865.949,244.167L866.371,239.683L880.947,235.2L892.211,230.717L905.228,226.233L917.147,221.75L917.311,217.267L917.574,212.783L928.838,208.3L943.136,203.817L953.267,199.333L966.964,194.85L981.058,190.367L993.51,185.883L994.307,181.4L1001.894,176.917L1028.671,172.433L1029.801,167.95L1039.543,163.467L1039.789,158.983L1040.38,154.5L1040.805,150.017L1041.63,145.533L1051.312,141.05L1052.917,136.567L1053.211,132.083L1053.323,127.6L1069.936,123.117L1081.871,118.633L1090.903,114.15L1102.457,114.15L1104.052,109.667L1105.311,105.183L1106.21,100.7L1127.819,96.217L1140.221,91.733L1142.33,87.25L1151.622,82.767L1151.877,78.283L1152.78,73.8L1164.448,73.8L1169.751,69.317L1180,69.317L1180,558L1169.751,558L1164.448,558L1152.78,558L1151.877,558L1151.622,558L1142.33,558L1140.221,558L1127.819,558L1106.21,558L1105.311,558L1104.052,558L1102.457,558L1090.903,558L1081.871,558L1069.936,558L1053.323,558L1053.211,558L1052.917,558L1051.312,558L1041.63,558L1040.805,558L1040.38,558L1039.789,558L1039.543,558L1029.801,558L1028.671,558L1001.894,558L994.307,558L993.51,558L981.058,558L966.964,558L953.267,558L943.136,558L928.838,558L917.574,558L917.311,558L917.147,558L905.228,558L892.211,558L880.947,558L866.371,558L865.949,558L865.911,558L856.922,558L841.873,558L841.652,558L841.597,558L827.264,558L827.151,558L814.99,558L814.961,558L814.952,558L814.661,558L805.572,558L791.528,558L779.555,558L754.283,558L743.11,558L727.339,558L717.064,558L704.678,558L691.318,558L681.81,558L666.951,558L652.992,558L640.771,558L628.627,558L617.198,558L603.738,558L592.335,558L579.675,558L564.046,558L542.576,558L528.651,558L516.464,558L503.658,558L492.413,558L477.195,558L464.915,558L464.804,558L464.638,558L464.045,558L455.965,558L441.923,558L429.364,558L418.063,558L404.146,558L389.428,558L377.974,558L367.441,558L354.104,558L342.968,558L314.941,558L303.063,558L288.841,558L279.776,558L279.746,558L276.348,558L263.604,558L254.223,558L239.742,558L238.632,558L227.521,558L227.48,558L226.556,558L226.458,558L204.058,558L203.957,558L201.384,558L179.528,558L156.342,558L142.237,558L117.952,558L106.663,558L91.86,558L77.675,558L66.696,558L55.476,558L40.031,558Z"><title>TypeScript</title></path><path fill="rgb(86, 61, 124, 0.8)" d="M40.031,553.517L55.476,549.033L66.696,544.55L77.675,540.067L91.86,535.583L106.663,531.1L117.952,526.617L142.237,526.617L156.342,526.617L179.528,526.617L201.384,522.133L203.957,517.65L204.058,513.167L226.458,508.683L226.556,504.2L227.48,499.717L227.521,495.233L238.632,490.75L239.742,490.75L254.223,490.75L263.604,486.267L276.348,481.783L279.746,477.3L279.776,477.3L288.841,477.3L303.063,472.817L314.941,468.333L342.968,463.85L354.104,459.367L367.441,454.883L377.974,450.4L389.428,445.917L404.146,441.433L418.063,436.95L429.364,432.467L441.923,427.983L455.965,423.5L464.045,419.017L464.638,414.533L464.804,410.05L464.915,405.567L477.195,401.083L492.413,396.6L503.658,392.117L516.464,387.633L528.651,383.15L542.576,378.667L564.046,374.183L579.675,369.7L592.335,365.217L603.738,360.733L617.198,356.25L628.627,351.767L640.771,347.283L652.992,342.8L666.951,338.317L681.81,333.833L691.318,329.35L704.678,324.867L717.064,320.383L727.339,315.9L743.11,311.417L754.283,306.933L779.555,302.45L791.528,297.967L805.572,293.483L814.661,289L814.952,284.517L814.961,280.033L814.99,275.55L827.151,271.067L827.264,266.583L841.597,262.1L841.652,257.617L841.873,253.133L856.922,248.65L865.911,244.167L865.949,239.683L866.371,235.2L880.947,230.717L892.211,226.233L905.228,221.75L917.147,217.267L917.311,212.783L917.574,208.3L928.838,203.817L943.136,199.333L953.267,194.85L966.964,190.367L981.058,185.883L993.51,181.4L994.307,176.917L1001.894,172.433L1028.671,167.95L1029.801,163.467L1039.543,158.983L1039.789,154.5L1040.38,150.017L1040.805,145.533L1041.63,141.05L1051.312,136.567L1052.917,132.083L1053.211,127.6L1053.323,123.117L1069.936,118.633L1081.871,114.15L1090.903,109.667L1102.457,109.667L1104.052,105.183L1105.311,100.7L1106.21,96.217L1127.819,91.733L1140.221,87.25L1142.33,82.767L1151.622,78.283L1151.877,73.8L1152.78,69.317L1164.448,64.833L1169.751,60.35L1180,55.867L1180,69.317L1169.751,69.317L1164.448,73.8L1152.78,73.8L1151.877,78.283L1151.622,82.767L1142.33,87.25L1140.221,91.733L1127.819,96.217L1106.21,100.7L1105.311,105.183L1104.052,109.667L1102.457,114.15L1090.903,114.15L1081.871,118.633L1069.936,123.117L1053.323,127.6L1053.211,132.083L1052.917,136.567L1051.312,141.05L1041.63,145.533L1040.805,150.017L1040.38,154.5L1039.789,158.983L1039.543,163.467L1029.801,167.95L1028.671,172.433L1001.894,176.917L994.307,181.4L993.51,185.883L981.058,190.367L966.964,194.85L953.267,199.333L943.136,203.817L928.838,208.3L917.574,212.783L917.311,217.267L917.147,221.75L905.228,226.233L892.211,230.717L880.947,235.2L866.371,239.683L865.949,244.167L865.911,248.65L856.922,253.133L841.873,257.617L841.652,262.1L841.597,266.583L827.264,271.067L827.151,275.55L814.99,280.033L814.961,284.517L814.952,289L814.661,293.483L805.572,297.967L791.528,302.45L779.555,306.933L754.283,311.417L743.11,315.9L727.339,320.383L717.064,324.867L704.678,329.35L691.318,333.833L681.81,338.317L666.951,342.8L652.992,347.283L640.771,351.767L628.627,356.25L617.198,360.733L603.738,365.217L592.335,369.7L579.675,374.183L564.046,378.667L542.576,383.15L528.651,387.633L516.464,392.117L503.658,396.6L492.413,401.083L477.195,405.567L464.915,410.05L464.804,414.533L464.638,419.017L464.045,423.5L455.965,427.983L441.923,432.467L429.364,436.95L418.063,441.433L404.146,445.917L389.428,450.4L377.974,454.883L367.441,459.367L354.104,463.85L342.968,468.333L314.941,472.817L303.063,477.3L288.841,481.783L279.776,481.783L279.746,481.783L276.348,486.267L263.604,490.75L254.223,495.233L239.742,495.233L238.632,495.233L227.521,499.717L227.48,504.2L226.556,508.683L226.458,513.167L204.058,517.65L203.957,522.133L201.384,526.617L179.528,531.1L156.342,531.1L142.237,531.1L117.952,531.1L106.663,535.583L91.86,540.067L77.675,544.55L66.696,544.55L55.476,549.033L40.031,553.517Z"><title>CSS</title></path><path fill="rgb(8, 63, 161, 0.8)" d="M40.031,553.517L55.476,549.033L66.696,544.55L77.675,540.067L91.86,535.583L106.663,531.1L117.952,526.617L142.237,522.133L156.342,517.65L179.528,513.167L201.384,508.683L203.957,504.2L204.058,499.717L226.458,495.233L226.556,490.75L227.48,486.267L227.521,481.783L238.632,477.3L239.742,477.3L254.223,472.817L263.604,468.333L276.348,463.85L279.746,459.367L279.776,459.367L288.841,459.367L303.063,454.883L314.941,450.4L342.968,445.917L354.104,441.433L367.441,436.95L377.974,432.467L389.428,427.983L404.146,423.5L418.063,419.017L429.364,414.533L441.923,410.05L455.965,405.567L464.045,401.083L464.638,396.6L464.804,392.117L464.915,387.633L477.195,383.15L492.413,378.667L503.658,374.183L516.464,369.7L528.651,365.217L542.576,360.733L564.046,356.25L579.675,351.767L592.335,347.283L603.738,342.8L617.198,338.317L628.627,333.833L640.771,329.35L652.992,324.867L666.951,320.383L681.81,315.9L691.318,311.417L704.678,306.933L717.064,302.45L727.339,297.967L743.11,293.483L754.283,289L779.555,284.517L791.528,280.033L805.572,275.55L814.661,271.067L814.952,266.583L814.961,262.1L814.99,257.617L827.151,253.133L827.264,248.65L841.597,244.167L841.652,239.683L841.873,235.2L856.922,230.717L865.911,226.233L865.949,221.75L866.371,217.267L880.947,212.783L892.211,208.3L905.228,203.817L917.147,199.333L917.311,194.85L917.574,190.367L928.838,185.883L943.136,181.4L953.267,176.917L966.964,172.433L981.058,167.95L993.51,163.467L994.307,158.983L1001.894,154.5L1028.671,150.017L1029.801,145.533L1039.543,141.05L1039.789,136.567L1040.38,132.083L1040.805,127.6L1041.63,123.117L1051.312,118.633L1052.917,114.15L1053.211,109.667L1053.323,105.183L1069.936,100.7L1081.871,96.217L1090.903,91.733L1102.457,91.733L1104.052,87.25L1105.311,82.767L1106.21,78.283L1127.819,73.8L1140.221,69.317L1142.33,64.833L1151.622,60.35L1151.877,55.867L1152.78,51.383L1164.448,46.9L1169.751,42.417L1180,37.933L1180,55.867L1169.751,60.35L1164.448,64.833L1152.78,69.317L1151.877,73.8L1151.622,78.283L1142.33,82.767L1140.221,87.25L1127.819,91.733L1106.21,96.217L1105.311,100.7L1104.052,105.183L1102.457,109.667L1090.903,109.667L1081.871,114.15L1069.936,118.633L1053.323,123.117L1053.211,127.6L1052.917,132.083L1051.312,136.567L1041.63,141.05L1040.805,145.533L1040.38,150.017L1039.789,154.5L1039.543,158.983L1029.801,163.467L1028.671,167.95L1001.894,172.433L994.307,176.917L993.51,181.4L981.058,185.883L966.964,190.367L953.267,194.85L943.136,199.333L928.838,203.817L917.574,208.3L917.311,212.783L917.147,217.267L905.228,221.75L892.211,226.233L880.947,230.717L866.371,235.2L865.949,239.683L865.911,244.167L856.922,248.65L841.873,253.133L841.652,257.617L841.597,262.1L827.264,266.583L827.151,271.067L814.99,275.55L814.961,280.033L814.952,284.517L814.661,289L805.572,293.483L791.528,297.967L779.555,302.45L754.283,306.933L743.11,311.417L727.339,315.9L717.064,320.383L704.678,324.867L691.318,329.35L681.81,333.833L666.951,338.317L652.992,342.8L640.771,347.283L628.627,351.767L617.198,356.25L603.738,360.733L592.335,365.217L579.675,369.7L564.046,374.183L542.576,378.667L528.651,383.15L516.464,387.633L503.658,392.117L492.413,396.6L477.195,401.083L464.915,405.567L464.804,410.05L464.638,414.533L464.045,419.017L455.965,423.5L441.923,427.983L429.364,432.467L418.063,436.95L404.146,441.433L389.428,445.917L377.974,450.4L367.441,454.883L354.104,459.367L342.968,463.85L314.941,468.333L303.063,472.817L288.841,477.3L279.776,477.3L279.746,477.3L276.348,481.783L263.604,486.267L254.223,490.75L239.742,490.75L238.632,490.75L227.521,495.233L227.48,499.717L226.556,504.2L226.458,508.683L204.058,513.167L203.957,517.65L201.384,522.133L179.528,526.617L156.342,526.617L142.237,526.617L117.952,526.617L106.663,531.1L91.86,535.583L77.675,540.067L66.696,544.55L55.476,549.033L40.031,553.517Z"><title>Markdown</title></path><path fill="rgb(0, 0, 0, 0.8)" d="M40.031,553.517L55.476,549.033L66.696,544.55L77.675,540.067L91.86,535.583L106.663,531.1L117.952,526.617L142.237,522.133L156.342,517.65L179.528,513.167L201.384,508.683L203.957,504.2L204.058,499.717L226.458,495.233L226.556,490.75L227.48,486.267L227.521,481.783L238.632,477.3L239.742,472.817L254.223,468.333L263.604,463.85L276.348,459.367L279.746,454.883L279.776,450.4L288.841,445.917L303.063,441.433L314.941,436.95L342.968,432.467L354.104,427.983L367.441,423.5L377.974,419.017L389.428,414.533L404.146,410.05L418.063,405.567L429.364,401.083L441.923,396.6L455.965,392.117L464.045,387.633L464.638,383.15L464.804,378.667L464.915,374.183L477.195,369.7L492.413,365.217L503.658,360.733L516.464,356.25L528.651,351.767L542.576,347.283L564.046,342.8L579.675,338.317L592.335,333.833L603.738,329.35L617.198,324.867L628.627,320.383L640.771,315.9L652.992,311.417L666.951,306.933L681.81,302.45L691.318,297.967L704.678,293.483L717.064,289L727.339,284.517L743.11,280.033L754.283,275.55L779.555,271.067L791.528,266.583L805.572,262.1L814.661,257.617L814.952,253.133L814.961,248.65L814.99,244.167L827.151,239.683L827.264,235.2L841.597,230.717L841.652,226.233L841.873,221.75L856.922,217.267L865.911,212.783L865.949,208.3L866.371,203.817L880.947,199.333L892.211,194.85L905.228,190.367L917.147,185.883L917.311,181.4L917.574,176.917L928.838,172.433L943.136,167.95L953.267,163.467L966.964,158.983L981.058,154.5L993.51,150.017L994.307,145.533L1001.894,141.05L1028.671,136.567L1029.801,132.083L1039.543,127.6L1039.789,123.117L1040.38,118.633L1040.805,114.15L1041.63,109.667L1051.312,105.183L1052.917,100.7L1053.211,96.217L1053.323,91.733L1069.936,87.25L1081.871,82.767L1090.903,78.283L1102.457,73.8L1104.052,69.317L1105.311,64.833L1106.21,60.35L1127.819,55.867L1140.221,51.383L1142.33,46.9L1151.622,42.417L1151.877,37.933L1152.78,33.45L1164.448,28.967L1169.751,24.483L1180,20L1180,37.933L1169.751,42.417L1164.448,46.9L1152.78,51.383L1151.877,55.867L1151.622,60.35L1142.33,64.833L1140.221,69.317L1127.819,73.8L1106.21,78.283L1105.311,82.767L1104.052,87.25L1102.457,91.733L1090.903,91.733L1081.871,96.217L1069.936,100.7L1053.323,105.183L1053.211,109.667L1052.917,114.15L1051.312,118.633L1041.63,123.117L1040.805,127.6L1040.38,132.083L1039.789,136.567L1039.543,141.05L1029.801,145.533L1028.671,150.017L1001.894,154.5L994.307,158.983L993.51,163.467L981.058,167.95L966.964,172.433L953.267,176.917L943.136,181.4L928.838,185.883L917.574,190.367L917.311,194.85L917.147,199.333L905.228,203.817L892.211,208.3L880.947,212.783L866.371,217.267L865.949,221.75L865.911,226.233L856.922,230.717L841.873,235.2L841.652,239.683L841.597,244.167L827.264,248.65L827.151,253.133L814.99,257.617L814.961,262.1L814.952,266.583L814.661,271.067L805.572,275.55L791.528,280.033L779.555,284.517L754.283,289L743.11,293.483L727.339,297.967L717.064,302.45L704.678,306.933L691.318,311.417L681.81,315.9L666.951,320.383L652.992,324.867L640.771,329.35L628.627,333.833L617.198,338.317L603.738,342.8L592.335,347.283L579.675,351.767L564.046,356.25L542.576,360.733L528.651,365.217L516.464,369.7L503.658,374.183L492.413,378.667L477.195,383.15L464.915,387.633L464.804,392.117L464.638,396.6L464.045,401.083L455.965,405.567L441.923,410.05L429.364,414.533L418.063,419.017L404.146,423.5L389.428,427.983L377.974,432.467L367.441,436.95L354.104,441.433L342.968,445.917L314.941,450.4L303.063,454.883L288.841,459.367L279.776,459.367L279.746,459.367L276.348,463.85L263.604,468.333L254.223,472.817L239.742,477.3L238.632,477.3L227.521,481.783L227.48,486.267L226.556,490.75L226.458,495.233L204.058,499.717L203.957,504.2L201.384,508.683L179.528,513.167L156.342,517.65L142.237,522.133L117.952,526.617L106.663,531.1L91.86,535.583L77.675,540.067L66.696,544.55L55.476,549.033L40.031,553.517Z"><title>Commit languages area chart</title></path></g></svg>